<?xml version="1.0" encoding="utf-8"?>
<!-- Generator: Adobe Illustrator 28.3.0, SVG Export Plug-In . SVG Version: 6.00 Build 0)  -->
<svg version="1.1" id="Camada_1" xmlns="http://www.w3.org/2000/svg" xmlns:xlink="http://www.w3.org/1999/xlink" x="0px" y="0px"
	 viewBox="0 0 300 300" style="enable-background:new 0 0 300 300;" xml:space="preserve">
<style type="text/css">
	.st0{fill:#009E7C;}
	.st1{fill:none;stroke:#009E7C;stroke-width:1.156;stroke-miterlimit:22.926;}
	.st2{fill:#16514B;}
	.st3{font-family:'Georgia-Bold';}
	.st4{font-size:108.738px;}
	.st5{font-family:'ArialMT';}
	.st6{font-size:17.8101px;}
	.st7{fill-rule:evenodd;clip-rule:evenodd;fill:#009E7C;}
	.st8{fill-rule:evenodd;clip-rule:evenodd;fill:#16514B;}
</style>
<path class="st0" d="M103.68,80.96h179.65v138.79H96.27c0.43-1.05,0.76-2.13,1.12-3.2h182.74V84.17H104.8l-0.01-0.04
	c-0.25-0.92-0.56-1.81-0.95-2.68C103.77,81.28,103.71,81.13,103.68,80.96 M18.27,80.96H41.2c0.03,0.39,0.07,0.77,0.12,1.16
	c0.01,0.09,0.03,0.18,0.04,0.26c0.1,0.6,0.23,1.2,0.39,1.78H19.87v132.39h30.26c-0.33,1.04-0.58,2.12-0.75,3.2H16.67V80.96H18.27z"
	/>
<path class="st1" d="M103.68,80.96h179.65v138.79H96.27c0.43-1.05,0.76-2.13,1.12-3.2h182.74V84.17H104.8l-0.01-0.04
	c-0.25-0.92-0.56-1.81-0.95-2.68C103.77,81.28,103.71,81.13,103.68,80.96z M18.27,80.96H41.2c0.03,0.39,0.07,0.77,0.12,1.16
	c0.01,0.09,0.03,0.18,0.04,0.26c0.1,0.6,0.23,1.2,0.39,1.78H19.87v132.39h30.26c-0.33,1.04-0.58,2.12-0.75,3.2H16.67V80.96H18.27z"
	/>
<text transform="matrix(1 0 0 1 119.5453 173.8638)" class="st2 st3 st4">TS</text>
<text transform="matrix(1 0 0 1 137.1962 198.8647)"><tspan x="0" y="0" class="st2 st5 st6">T</tspan><tspan x="10.63" y="0" class="st2 st5 st6">ech</tspan><tspan x="38.54" y="0" class="st2 st5 st6"> &amp; </tspan><tspan x="59.57" y="0" class="st2 st5 st6">Heal</tspan><tspan x="95.13" y="0" class="st2 st5 st6">t</tspan><tspan x="99.83" y="0" class="st2 st5 st6">h</tspan></text>
<path class="st7" d="M71.32,50.1c-0.31,0.91-0.97,1.98,0.15,1.92c4.73-0.34,9.46-0.69,14.19-1.03c1.49-0.09,1.8-0.18,1.62-1.7
	c-0.32-3.11-0.57-6.23,0.41-9.51c-0.4-1.55-1.72-2.21-4.31-1.62c-3.57,0.76-7.21,1.23-10.95,1.14c-4.3,0.03-1.42,3.23-1.95,5.38
	c-2.55,0.35-4.96,2.35-5.06,4C65.09,54.01,69.12,50.5,71.32,50.1"/>
<path class="st7" d="M71.35,262.07c1.3,1.14,3.4,1.12,2.29-1.75c-3.02-12.11-1.79-24.13,5.57-36.03c1.2-1.96,1.24-3.43-1.02-4.16
	c-4.37-1.41-8.74-2.83-13.11-4.24c-3.37,0.44-4.86,4.28-4.61,8.33c-0.21,2.58,1.81,3.37,2.65,3.6c0.94,1.11-1.66,1.71-0.55,4.64
	c-0.92,1.09-2.81,1.31-2.75,3.26c-0.09,1.86-0.54,4.66,2.57,4.85c0.54,0.06,1.21,0.45,0.86,1.21c-0.54,2.82-2.49,5.46,0.09,9.28
	C65.15,254.3,68.59,259.66,71.35,262.07"/>
<path class="st7" d="M69.87,64.63c0.63-0.39,0.98-0.41,0.98,0.24c-0.67,1.88,0.9,2.82,2.12,2.73c2.83-0.22,5.66-0.44,8.49-0.66
	c2.11-0.23,7.97,0.25,7.54-2.52c-0.39-2.45-2.33-0.77-2.32-6.67c0-2.05,0.19-3.39-1.44-4.07c-0.93-0.68-8.39,0.43-10.27,0.54
	c-3.75,0.22-6.11-1.5-7.09,0.11c-0.39,0.64-0.05,1.71-0.09,2.23c0.12,1.08,1.56,1.61,1.78,2.2c-0.77,0.74-3.41,0.8-4.63,2.32
	c-0.62,0.77-0.99,1.88-0.78,3.16C64.55,66.74,68.4,65.56,69.87,64.63"/>
<path class="st7" d="M75.16,70.55c-1.85,0.09-3.14-0.27-4.77-0.13c-0.52-0.01-1.19,0.28-1.52,0.7c-2.47,3.91,5.49,4.56-0.65,5.64
	c-2.32,0.7-4.28,0.9-3.87,3.73c1.3,7.7,8.11-0.54,7.94,3.09c-0.03,0.58,0.61,1.06,1.12,1.09c1.35-0.03,2.69,0.04,4.1-0.03
	c1.85-0.09,5.8-0.93,7.52-1.23c3.8-1.26,8.48-0.45,6.98-3.83c-0.16-0.59-0.46-1.35-0.68-1.83c-1.55-2.26-1.63-7.44-3.1-8.26
	C86.55,68.06,80.15,70.76,75.16,70.55"/>
<path class="st7" d="M86.62,86.07c-1.4,0.23-2.93,0.72-4.42,1c-1.63,0.31-3.65,0.42-5.43,0.47c-1.67,0.04-4.15-0.66-5.14,0.38
	c-1.86,1.94,0.93,3.71,1.47,5.13c-0.28,0.65-6.08,2.06-5.96,3.5c0.21,1.98-0.62,5.69,1.92,5.48c1-0.08,4.99-1.8,5.38-2.24
	c2.1-1.47,0.43,0.88,1.84,1.91c1.59,1.17,9.06-0.8,11.41-1.21c0.94-0.16,2.09-0.24,2.91-0.47c1.47-0.42,5.33,0.16,6.2-0.49
	c1.32-0.99-0.37-3.58-0.82-4.64c-0.39-0.91-0.52-1.65-0.83-2.5c-0.44-1.77-0.88-3.55-1.32-5.33c-0.27-1.03-0.46-1.59-1.48-1.94
	C90.88,84.59,88.21,85.84,86.62,86.07"/>
<path class="st7" d="M76.21,111.48c-0.13,0-5.42,1.17-5.56,3.92c-0.04,0.89-0.15,2.23,0.21,2.98c1.44,2.96,5.15,0.55,7.54-0.49
	c0.81-0.35,1.42-0.81,1.44,0.15c0.02,0.82-0.03,1.42,0.86,2.07c0.84,0.62,1.67,0.66,2.88,0.38c1.99-0.46,3.93-0.89,5.7-1.29
	c1.43-0.33,6.42-0.73,9.39-1.51c2.35-0.62,2.73-1.17,2-3.59c-0.36-1.21-0.99-2.27-1.22-3.56c-0.47-1.22-0.82-3.46-0.95-5.03
	c-0.05-0.65-0.42-1.75-0.63-2.13c-0.46-0.85-0.76-1.12-1.94-1.34c-3.24-0.07-4.51,0.51-6.84,0.87c-1.05,0.16-2.08,0.55-3.07,0.67
	c-1.29,0.17-2.19,0.31-3.37,0.54c-4.25,0.83-8.64-0.47-7.21,3.83C76.07,109.93,77.58,110.83,76.21,111.48"/>
<path class="st7" d="M80.29,127.32c-0.01,0.69-0.08,0.89-0.22,0.96c-1.26,0.68-4.83,0.94-6.16,2.52c-1.24,1.48-0.07,3.51,1.09,4.56
	c1.35,1.22,5.62-0.33,7.85-0.37c0.02,0.36-0.03,0.64-0.02,0.89c0.13,3.18,5.87,2.45,7.87,2.39c1.56-0.05,1.48-0.34,4.83-0.35
	c1.6,0,8.32-1.18,8.99-1.89c1.17-1.25-1.03-5.95-1.55-8.45c-0.34-1.62-0.44-3.08-0.75-4.61c-0.4-2.02-1.73-1.93-3.86-1.84
	c-1.71,0.29-3.41,0.58-5.12,0.87c-1.82,0.41-3.87,0.29-5.75,0.62C83.27,123.35,78.56,120.72,80.29,127.32"/>
<path class="st7" d="M81.91,145.63c0.66,1.12,0.37,1.24-0.47,1.26c-1.38,0.03-4.25-0.08-5.34,0.31c-0.98,0.35-1.35,0.71-1.69,1.66
	c-0.52,1.44-0.19,4.95,1.4,4.76c0.49,0.48,0.89,0.41,1.72,0.41c0.67,0,1.34,0,2.01-0.01c1.71,0,2.71-0.03,3.3-0.04
	c2.39-0.01-1.55,1.96,2.91,3.7c0.89,0.35,8.89,0.9,10.2,0.89c10.66-0.07,8.65,0.89,9.22-7.41c0.12-1.75,0.03-3.56,0.24-5.34
	c0.23-1.89,0.96-4.8-1.42-4.95c-1.62-0.1-3.84,0.04-5.04,0.2c-1.94,0.25-4.2,0-6.19,0.09c-2.03,0.09-2.08,0.48-5.85,0.37
	C86.11,141.66,78.12,138.62,81.91,145.63"/>
<path class="st7" d="M73.33,171.16c0.57,0.5,1.67,0.43,2.7,0.45c1,0.02,2-0.01,3.06,0.02l0.09,0.59c-0.26,2.83,0.62,3.16,2.7,4.18
	c1.21,0.6,4.16,1.6,5.49,1.77c1.03,0.13,2.2,0.28,3.29,0.43c1.16,0.15,2.38,0.04,3.56,0.1c1.8,0.08,3.6,0.62,5.18,0.43
	c1.29-0.16,1.11-0.64,1.11-0.64c0.74-0.46,0.81-1.14,0.93-2.57c0.09-1.02,0.29-1.93,0.32-3.02c0.04-1.6,0.57-4.27,1.09-5.56
	c2.51-6.15,0.34-5.33-5.26-5.89c-1.35-0.02-1.66-0.27-2.87-0.31l-6.32-0.04l-2.5-0.62c-1.81-0.45-3.21-1.37-5.09-0.35
	c-2.15,1.16-1.91,3.09-2.01,4.51c-2.39,0.31-5.12-0.31-6.7,1.15C71.39,166.45,71.03,171.07,73.33,171.16"/>
<path class="st7" d="M73.04,183.91c-0.99-0.25-3.06-0.48-3.98-0.42c-1.55,0.1-1.8,1.62-2.21,2.98c-0.45,1.5,0.07,2.71,1.35,3.27
	c0.98,0.43,3.11,1.19,4.17,0.94c0.04,0.02,0.11,0,0.13,0.05c0.11,0.24,0.3-0.03,0.84,0.23c0.47,0.23,0.35,0.03,0.28,0.71
	c-0.53,0.79-0.37,2.37,0.26,3.08c0.67,0.76,1.22,1.12,2.26,1.6c3.92,1.83,7.39,2.35,11.58,3.44c1.73,0.45,4.83,1.28,5.95-0.59
	c0.93-1.55,1.25-6.13,2.75-8.64c0.57-0.96,3.02-3.28,2.04-5.28c-0.64-1.31-7.41-3.04-8.07-3.05c-0.03-0.03-0.1-0.12-0.12-0.08
	c-0.02,0.04-0.09-0.06-0.12-0.07l-5.9-1.45c-1.06-0.2-1.9-0.55-2.97-0.83c-1.13-0.29-2.05-0.8-3.13-1.04
	c-1.39-0.8-3.05,0.49-3.84,1.14c-0.84,0.68-1.43,2.61-0.65,3.41C74.98,184.63,73.76,184.09,73.04,183.91"/>
<path class="st7" d="M67.21,210.4c-1.24,1.43,0.55,3.46,2.74,4.4c2.69,1.15,9.63,3.12,12.68,3.21c3.5,0.1,3.69-5.56,5.29-8.24
	c0.2-0.34,5.26-5.71,0.51-6.81l-8.92-2.23c-0.75-0.23-2.24-0.87-2.86-0.88c-0.48-0.4-2.47-1.13-3.35-1.61
	c-1.01-0.55-2.24-1.51-3.7-1.15c-1.51,0.37-3.04,2.5-2.55,4.59c0.49,1.65,1.14,1.97,0.12,1.85c-1.57-0.18-3.04-0.84-4.75-0.57
	c-1.8,0.28-2.67,5.2-0.4,6.07C63.9,209.56,68.21,209.06,67.21,210.4"/>
<path class="st8" d="M51.43,73.01c3.98,37.92,27.24,80.63-5,121.23C85.13,152.84,60.64,111.03,51.43,73.01"/>
</svg>
