<?xml version="1.0" encoding="UTF-8"?>
<svg id="Camada_1" data-name="Camada 1" xmlns="http://www.w3.org/2000/svg" viewBox="0 0 267.82 224.83">
  <defs>
    <style>
      .cls-1 {
        font-family: ArialMT, Arial;
        font-size: 17.81px;
      }

      .cls-1, .cls-2, .cls-3 {
        fill: #16514b;
      }

      .cls-4 {
        letter-spacing: -.02em;
      }

      .cls-2, .cls-5 {
        fill-rule: evenodd;
      }

      .cls-2, .cls-5, .cls-6 {
        stroke-width: 0px;
      }

      .cls-7 {
        letter-spacing: -.01em;
      }

      .cls-8 {
        letter-spacing: 0em;
      }

      .cls-9 {
        fill: none;
        stroke: #009e7c;
        stroke-miterlimit: 22.93;
        stroke-width: 1.16px;
      }

      .cls-5, .cls-6 {
        fill: #009e7c;
      }

      .cls-10 {
        letter-spacing: -.01em;
      }

      .cls-3 {
        font-family: Georgia-Bold, Georgia;
        font-size: 108.74px;
        font-weight: 700;
      }
    </style>
  </defs>
  <path class="cls-6" d="M87.59,43.02h179.65v138.79H80.18c.43-1.05.76-2.13,1.12-3.2h182.74V46.22H88.71v-.04c-.26-.92-.57-1.81-.96-2.68-.07-.16-.13-.32-.16-.48M2.18,43.02h22.93c.03.39.07.77.12,1.16.01.09.03.18.04.26.1.6.23,1.2.39,1.78H3.78v132.39h30.26c-.33,1.04-.58,2.12-.75,3.2H.58V43.02h1.6Z"/>
  <path class="cls-9" d="M87.59,43.02h179.65v138.79H80.18c.43-1.05.76-2.13,1.12-3.2h182.74V46.22H88.71v-.04c-.26-.92-.57-1.81-.96-2.68-.07-.16-.13-.32-.16-.48ZM2.18,43.02h22.93c.03.39.07.77.12,1.16.01.09.03.18.04.26.1.6.23,1.2.39,1.78H3.78v132.39h30.26c-.33,1.04-.58,2.12-.75,3.2H.58V43.02h1.6Z"/>
  <text class="cls-3" transform="translate(103.46 135.92)"><tspan x="0" y="0">TS</tspan></text>
  <text class="cls-1" transform="translate(121.11 160.92)"><tspan class="cls-10" x="0" y="0">T</tspan><tspan class="cls-4" x="10.63" y="0">ech</tspan><tspan class="cls-10" x="38.54" y="0" xml:space="preserve"> &amp; </tspan><tspan class="cls-7" x="59.57" y="0">Heal</tspan><tspan class="cls-10" x="95.13" y="0">t</tspan><tspan class="cls-8" x="99.83" y="0">h</tspan></text>
  <path class="cls-5" d="M55.23,12.16c-.31.91-.97,1.98.15,1.92,4.73-.34,9.46-.69,14.19-1.03,1.49-.09,1.8-.18,1.62-1.7-.32-3.11-.57-6.23.41-9.51-.4-1.55-1.72-2.21-4.31-1.62-3.57.76-7.21,1.23-10.95,1.14-4.3.03-1.42,3.23-1.95,5.38-2.55.35-4.96,2.35-5.06,4-.31,5.32,3.71,1.81,5.91,1.41"/>
  <path class="cls-5" d="M55.26,224.13c1.3,1.14,3.4,1.12,2.29-1.75-3.02-12.11-1.79-24.13,5.57-36.03,1.2-1.96,1.24-3.43-1.02-4.16-4.37-1.41-8.74-2.83-13.11-4.24-3.37.44-4.86,4.28-4.61,8.33-.21,2.58,1.81,3.37,2.65,3.6.94,1.11-1.66,1.71-.55,4.64-.92,1.09-2.81,1.31-2.75,3.26-.09,1.86-.54,4.66,2.57,4.85.54.06,1.21.45.86,1.21-.54,2.82-2.49,5.46.09,9.28,1.81,3.24,5.25,8.6,8.01,11.01"/>
  <path class="cls-5" d="M53.78,26.69c.63-.39.98-.41.98.24-.67,1.88.9,2.82,2.12,2.73,2.83-.22,5.66-.44,8.49-.66,2.11-.23,7.97.25,7.54-2.52-.39-2.45-2.33-.77-2.32-6.67,0-2.05.19-3.39-1.44-4.07-.93-.68-8.39.43-10.27.54-3.75.22-6.11-1.5-7.09.11-.39.64-.05,1.71-.09,2.23.12,1.08,1.56,1.61,1.78,2.2-.77.74-3.41.8-4.63,2.32-.62.77-.99,1.88-.78,3.16.4,2.5,4.25,1.32,5.72.39"/>
  <path class="cls-5" d="M59.07,32.61c-1.85.09-3.14-.27-4.77-.13-.52,0-1.19.28-1.52.7-2.47,3.91,5.49,4.56-.65,5.64-2.32.7-4.28.9-3.87,3.73,1.3,7.7,8.11-.54,7.94,3.09-.03.58.61,1.06,1.12,1.09,1.35-.03,2.69.04,4.1-.03,1.85-.09,5.8-.93,7.52-1.23,3.8-1.26,8.48-.45,6.98-3.83-.16-.59-.46-1.35-.68-1.83-1.55-2.26-1.63-7.44-3.1-8.26-1.68-1.42-8.08,1.27-13.07,1.07"/>
  <path class="cls-5" d="M70.53,48.13c-1.4.23-2.93.72-4.42,1-1.63.31-3.65.42-5.43.47-1.67.04-4.15-.66-5.14.38-1.86,1.94.93,3.71,1.47,5.13-.28.65-6.08,2.06-5.96,3.5.21,1.98-.62,5.69,1.92,5.48,1-.08,4.99-1.8,5.38-2.24,2.1-1.47.43.88,1.84,1.91,1.59,1.17,9.06-.8,11.41-1.21.94-.16,2.09-.24,2.91-.47,1.47-.42,5.33.16,6.2-.49,1.32-.99-.37-3.58-.82-4.64-.39-.91-.52-1.65-.83-2.5-.44-1.77-.88-3.55-1.32-5.33-.27-1.03-.46-1.59-1.48-1.94-1.47-.52-4.14.72-5.73.96"/>
  <path class="cls-5" d="M60.12,73.54c-.13,0-5.42,1.17-5.56,3.92-.04.89-.15,2.23.21,2.98,1.44,2.96,5.15.55,7.54-.49.81-.35,1.42-.81,1.44.15.02.82-.03,1.42.86,2.07.84.62,1.67.66,2.88.38,1.99-.46,3.93-.89,5.7-1.29,1.43-.33,6.42-.73,9.39-1.51,2.35-.62,2.73-1.17,2-3.59-.36-1.21-.99-2.27-1.22-3.56-.47-1.22-.82-3.46-.95-5.03-.05-.65-.42-1.75-.63-2.13-.46-.85-.76-1.12-1.94-1.34-3.24-.07-4.51.51-6.84.87-1.05.16-2.08.55-3.07.67-1.29.17-2.19.31-3.37.54-4.25.83-8.64-.47-7.21,3.83.65,1.97,2.16,2.88.79,3.52"/>
  <path class="cls-5" d="M64.2,89.38c0,.69-.08.89-.22.96-1.26.68-4.83.94-6.16,2.52-1.24,1.48-.07,3.51,1.09,4.56,1.35,1.22,5.62-.33,7.85-.37.02.36-.03.64-.02.89.13,3.18,5.87,2.45,7.87,2.39,1.56-.05,1.48-.34,4.83-.35,1.6,0,8.32-1.18,8.99-1.89,1.17-1.25-1.03-5.95-1.55-8.45-.34-1.62-.44-3.08-.75-4.61-.4-2.02-1.73-1.93-3.86-1.84-1.71.29-3.41.58-5.12.87-1.82.41-3.87.29-5.75.62-4.21.74-8.92-1.9-7.2,4.7"/>
  <path class="cls-5" d="M65.82,107.69c.66,1.12.37,1.24-.47,1.26-1.38.03-4.25-.08-5.34.31-.98.35-1.35.71-1.69,1.66-.52,1.44-.19,4.95,1.4,4.76.49.48.89.41,1.72.41.67,0,1.34,0,2.01,0,1.71,0,2.71-.03,3.3-.04,2.39,0-1.55,1.96,2.91,3.7.89.35,8.89.9,10.2.89,10.66-.07,8.65.89,9.22-7.41.12-1.75.03-3.56.24-5.34.23-1.89.96-4.8-1.42-4.95-1.62-.1-3.84.04-5.04.2-1.94.25-4.2,0-6.19.09-2.03.09-2.08.48-5.85.37-.8.14-8.79-2.9-5,4.11"/>
  <path class="cls-5" d="M57.24,133.21c.57.5,1.67.43,2.7.45,1,.02,2-.01,3.06.02l.09.59c-.26,2.83.62,3.16,2.7,4.18,1.21.6,4.16,1.6,5.49,1.77,1.03.13,2.2.28,3.29.43,1.16.15,2.38.04,3.56.1,1.8.08,3.6.62,5.18.43,1.29-.16,1.11-.64,1.11-.64.74-.46.81-1.14.93-2.57.09-1.02.29-1.93.32-3.02.04-1.6.57-4.27,1.09-5.56,2.51-6.15.34-5.33-5.26-5.89-1.35-.02-1.66-.27-2.87-.31l-6.32-.04-2.5-.62c-1.81-.45-3.21-1.37-5.09-.35-2.15,1.16-1.91,3.09-2.01,4.51-2.39.31-5.12-.31-6.7,1.15-.73.67-1.08,5.3,1.22,5.38"/>
  <path class="cls-5" d="M56.96,145.96c-.99-.25-3.06-.48-3.98-.42-1.55.1-1.8,1.62-2.21,2.98-.45,1.5.07,2.71,1.35,3.27.98.43,3.11,1.19,4.17.94.04.02.11,0,.13.05.11.24.3-.03.84.23.47.23.35.03.28.71-.53.79-.37,2.37.26,3.08.67.76,1.22,1.12,2.26,1.6,3.92,1.83,7.39,2.35,11.58,3.44,1.73.45,4.83,1.28,5.95-.59.93-1.55,1.25-6.13,2.75-8.64.57-.96,3.02-3.28,2.04-5.28-.64-1.31-7.41-3.04-8.07-3.05-.03-.03-.1-.12-.12-.08-.02.04-.09-.06-.12-.07l-5.9-1.45c-1.06-.2-1.9-.55-2.97-.83-1.13-.29-2.05-.8-3.13-1.04-1.39-.8-3.05.49-3.84,1.14-.84.68-1.43,2.61-.65,3.41,1.31,1.33.09.79-.63.61"/>
  <path class="cls-5" d="M51.13,172.45c-1.24,1.43.55,3.46,2.74,4.4,2.69,1.15,9.63,3.12,12.68,3.21,3.5.1,3.69-5.56,5.29-8.24.2-.34,5.26-5.71.51-6.81l-8.92-2.23c-.75-.23-2.24-.87-2.86-.88-.48-.4-2.47-1.13-3.35-1.61-1.01-.55-2.24-1.51-3.7-1.15-1.51.37-3.04,2.5-2.55,4.59.49,1.65,1.14,1.97.12,1.85-1.57-.18-3.04-.84-4.75-.57-1.8.28-2.67,5.2-.4,6.07,1.85.53,6.17.03,5.17,1.37"/>
  <path class="cls-2" d="M35.34,35.07c3.98,37.92,27.24,80.63-5,121.23,38.7-41.41,14.21-83.22,5-121.23"/>
</svg>