<?xml version="1.0" encoding="utf-8"?>
<!-- Generator: Adobe Illustrator 28.3.0, SVG Export Plug-In . SVG Version: 6.00 Build 0)  -->
<svg version="1.1" id="Camada_1" xmlns="http://www.w3.org/2000/svg" xmlns:xlink="http://www.w3.org/1999/xlink" x="0px" y="0px"
	 viewBox="0 0 300 300" style="enable-background:new 0 0 300 300;" xml:space="preserve">
<style type="text/css">
	.st0{fill:#16514B;}
	.st1{fill:#009E7C;}
	.st2{fill:none;stroke:#009E7C;stroke-width:1.156;stroke-miterlimit:22.926;}
	.st3{fill-rule:evenodd;clip-rule:evenodd;fill:#009E7C;}
	.st4{fill-rule:evenodd;clip-rule:evenodd;fill:#FFFFFF;}
	.st5{fill:#FFFFFF;}
	.st6{font-family:'Georgia-Bold';}
	.st7{font-size:76.7547px;}
	.st8{font-family:'ArialMT';}
	.st9{font-size:12.5716px;}
</style>
<rect x="12.92" y="59.98" class="st0" width="274.16" height="179.78"/>
<path class="st1" d="M121.99,97.96H248.8v97.97H116.76c0.3-0.74,0.54-1.5,0.79-2.26h128.99v-93.45H122.78l-0.01-0.03
	c-0.17-0.65-0.39-1.28-0.67-1.89C122.05,98.19,122.01,98.07,121.99,97.96 M61.7,97.96h16.19c0.02,0.27,0.05,0.54,0.09,0.82
	c0.01,0.06,0.02,0.12,0.03,0.19c0.07,0.42,0.16,0.84,0.28,1.26H62.83v93.45h21.36c-0.23,0.74-0.41,1.5-0.53,2.26h-23.1V97.96H61.7z"
	/>
<path class="st2" d="M121.99,97.96H248.8v97.97H116.76c0.3-0.74,0.54-1.5,0.79-2.26h128.99v-93.45H122.78l-0.01-0.03
	c-0.17-0.65-0.39-1.28-0.67-1.89C122.05,98.19,122.01,98.07,121.99,97.96z M61.7,97.96h16.19c0.02,0.27,0.05,0.54,0.09,0.82
	c0.01,0.06,0.02,0.12,0.03,0.19c0.07,0.42,0.16,0.84,0.28,1.26H62.83v93.45h21.36c-0.23,0.74-0.41,1.5-0.53,2.26h-23.1V97.96H61.7z"
	/>
<path class="st3" d="M99.14,76.17c-0.22,0.64-0.69,1.4,0.1,1.35c3.34-0.24,6.68-0.49,10.02-0.73c1.05-0.06,1.27-0.13,1.14-1.2
	c-0.23-2.2-0.41-4.4,0.29-6.71c-0.28-1.09-1.21-1.56-3.05-1.14c-2.52,0.54-5.09,0.86-7.73,0.81c-3.04,0.02-1.01,2.28-1.38,3.8
	c-1.8,0.24-3.5,1.66-3.57,2.83C94.75,78.93,97.59,76.45,99.14,76.17"/>
<path class="st3" d="M99.17,225.8c0.92,0.8,2.4,0.79,1.62-1.24c-2.13-8.55-1.26-17.03,3.93-25.43c0.84-1.38,0.87-2.42-0.72-2.94
	c-3.08-1-6.17-1.99-9.25-2.99c-2.38,0.31-3.43,3.02-3.26,5.88c-0.15,1.82,1.28,2.38,1.87,2.54c0.66,0.78-1.17,1.2-0.39,3.28
	c-0.65,0.77-1.99,0.92-1.94,2.3c-0.06,1.32-0.38,3.29,1.82,3.42c0.38,0.04,0.85,0.32,0.61,0.85c-0.38,1.99-1.76,3.85,0.06,6.55
	C94.79,220.31,97.22,224.1,99.17,225.8"/>
<path class="st3" d="M98.12,86.43c0.45-0.28,0.69-0.29,0.69,0.17c-0.47,1.33,0.63,1.99,1.5,1.93c2-0.16,4-0.31,5.99-0.47
	c1.49-0.16,5.63,0.18,5.32-1.78c-0.27-1.73-1.65-0.54-1.64-4.71c0-1.45,0.13-2.39-1.02-2.88c-0.66-0.48-5.92,0.3-7.25,0.38
	c-2.65,0.15-4.31-1.06-5.01,0.08c-0.27,0.45-0.04,1.21-0.06,1.57c0.09,0.76,1.1,1.13,1.26,1.55c-0.55,0.52-2.41,0.56-3.27,1.64
	c-0.44,0.54-0.7,1.32-0.55,2.23C94.37,87.92,97.09,87.08,98.12,86.43"/>
<path class="st3" d="M101.86,90.61c-1.3,0.06-2.22-0.19-3.37-0.09c-0.37-0.01-0.84,0.2-1.07,0.5c-1.75,2.76,3.88,3.22-0.46,3.98
	c-1.63,0.5-3.02,0.63-2.73,2.63c0.92,5.43,5.73-0.38,5.6,2.18c-0.02,0.41,0.43,0.75,0.79,0.77c0.95-0.02,1.9,0.03,2.89-0.02
	c1.31-0.06,4.09-0.65,5.31-0.87c2.68-0.89,5.98-0.32,4.93-2.71c-0.12-0.42-0.33-0.95-0.48-1.29c-1.09-1.59-1.15-5.25-2.19-5.83
	C109.89,88.85,105.38,90.75,101.86,90.61"/>
<path class="st3" d="M109.95,101.56c-0.99,0.16-2.07,0.51-3.12,0.71c-1.15,0.22-2.58,0.3-3.83,0.33c-1.18,0.03-2.93-0.47-3.63,0.26
	c-1.31,1.37,0.66,2.62,1.04,3.62c-0.2,0.46-4.29,1.45-4.21,2.47c0.15,1.4-0.43,4.02,1.36,3.86c0.7-0.06,3.52-1.27,3.8-1.58
	c1.49-1.04,0.31,0.62,1.3,1.35c1.12,0.83,6.39-0.57,8.06-0.86c0.66-0.12,1.47-0.17,2.05-0.33c1.04-0.3,3.76,0.12,4.38-0.35
	c0.93-0.7-0.26-2.53-0.58-3.27c-0.28-0.64-0.37-1.17-0.59-1.77c-0.31-1.25-0.62-2.51-0.93-3.76c-0.19-0.72-0.33-1.12-1.04-1.37
	C112.95,100.52,111.07,101.4,109.95,101.56"/>
<path class="st3" d="M102.6,119.5c-0.09,0-3.83,0.82-3.93,2.77c-0.03,0.63-0.11,1.57,0.15,2.11c1.02,2.09,3.63,0.39,5.32-0.35
	c0.57-0.25,1-0.57,1.02,0.1c0.01,0.58-0.02,1,0.6,1.46c0.59,0.43,1.18,0.47,2.04,0.27c1.41-0.32,2.77-0.63,4.02-0.91
	c1.01-0.23,4.53-0.51,6.63-1.06c1.66-0.43,1.92-0.82,1.41-2.53c-0.26-0.85-0.7-1.6-0.86-2.51c-0.33-0.86-0.58-2.44-0.67-3.55
	c-0.04-0.46-0.3-1.24-0.45-1.5c-0.33-0.6-0.54-0.79-1.37-0.94c-2.29-0.05-3.18,0.36-4.83,0.62c-0.74,0.11-1.47,0.38-2.16,0.47
	c-0.91,0.12-1.55,0.22-2.38,0.38c-3,0.59-6.1-0.33-5.09,2.71C102.5,118.4,103.56,119.04,102.6,119.5"/>
<path class="st3" d="M105.48,130.68c-0.01,0.48-0.06,0.63-0.16,0.68c-0.89,0.48-3.41,0.66-4.35,1.78c-0.87,1.05-0.05,2.48,0.77,3.22
	c0.96,0.86,3.97-0.24,5.54-0.26c0.01,0.25-0.02,0.45-0.01,0.63c0.09,2.24,4.15,1.73,5.56,1.69c1.1-0.03,1.05-0.24,3.41-0.25
	c1.13,0,5.88-0.84,6.35-1.34c0.83-0.88-0.73-4.2-1.09-5.97c-0.24-1.15-0.31-2.17-0.53-3.26c-0.28-1.43-1.22-1.36-2.73-1.3
	c-1.2,0.2-2.41,0.41-3.61,0.61c-1.29,0.29-2.73,0.21-4.06,0.44C107.58,127.88,104.26,126.02,105.48,130.68"/>
<path class="st3" d="M106.62,143.61c0.47,0.79,0.26,0.87-0.33,0.89c-0.97,0.02-3-0.06-3.77,0.22c-0.69,0.25-0.95,0.5-1.19,1.17
	c-0.37,1.02-0.13,3.49,0.99,3.36c0.34,0.34,0.63,0.29,1.22,0.29c0.47,0,0.95,0,1.42,0c1.2,0,1.91-0.02,2.33-0.03
	c1.69-0.01-1.09,1.39,2.06,2.61c0.63,0.24,6.27,0.64,7.2,0.63c7.52-0.05,6.11,0.63,6.51-5.23c0.09-1.23,0.02-2.51,0.17-3.77
	c0.16-1.33,0.68-3.39-1-3.5c-1.14-0.07-2.71,0.03-3.56,0.14c-1.37,0.18-2.97,0-4.37,0.06c-1.43,0.07-1.47,0.34-4.13,0.26
	C109.59,140.8,103.95,138.66,106.62,143.61"/>
<path class="st3" d="M100.57,161.62c0.4,0.35,1.18,0.3,1.91,0.32c0.71,0.01,1.41-0.01,2.16,0.01l0.07,0.42
	c-0.19,2,0.44,2.23,1.91,2.95c0.86,0.42,2.94,1.13,3.88,1.25c0.73,0.1,1.55,0.2,2.32,0.3c0.82,0.11,1.68,0.03,2.51,0.07
	c1.27,0.06,2.54,0.44,3.66,0.3c0.91-0.11,0.78-0.45,0.78-0.45c0.52-0.33,0.57-0.8,0.66-1.81c0.06-0.72,0.2-1.36,0.22-2.14
	c0.03-1.13,0.4-3.01,0.77-3.92c1.77-4.34,0.24-3.76-3.71-4.16c-0.95-0.02-1.17-0.19-2.02-0.22l-4.46-0.03l-1.77-0.44
	c-1.28-0.31-2.26-0.97-3.59-0.25c-1.52,0.82-1.35,2.18-1.42,3.19c-1.68,0.22-3.62-0.22-4.73,0.81
	C99.19,158.3,98.94,161.56,100.57,161.62"/>
<path class="st3" d="M100.36,170.62c-0.7-0.18-2.16-0.34-2.81-0.3c-1.1,0.07-1.27,1.15-1.56,2.1c-0.32,1.06,0.05,1.91,0.96,2.31
	c0.69,0.3,2.19,0.84,2.94,0.66c0.03,0.02,0.08,0,0.09,0.04c0.07,0.17,0.21-0.02,0.59,0.16c0.34,0.16,0.25,0.02,0.2,0.5
	c-0.37,0.56-0.26,1.67,0.18,2.17c0.47,0.54,0.86,0.79,1.6,1.13c2.77,1.29,5.22,1.66,8.17,2.43c1.22,0.32,3.41,0.9,4.2-0.42
	c0.66-1.1,0.88-4.33,1.94-6.1c0.4-0.67,2.13-2.31,1.44-3.73c-0.45-0.92-5.23-2.15-5.7-2.15c-0.02-0.02-0.07-0.08-0.08-0.06
	c-0.02,0.03-0.06-0.04-0.09-0.05l-4.16-1.03c-0.75-0.14-1.34-0.39-2.1-0.58c-0.8-0.2-1.45-0.57-2.21-0.74
	c-0.98-0.56-2.15,0.35-2.71,0.8c-0.59,0.48-1.01,1.85-0.46,2.41C101.73,171.13,100.87,170.75,100.36,170.62"/>
<path class="st3" d="M96.25,189.32c-0.87,1.01,0.39,2.44,1.93,3.11c1.9,0.81,6.8,2.2,8.95,2.27c2.47,0.07,2.61-3.93,3.74-5.82
	c0.14-0.24,3.72-4.03,0.36-4.81l-6.29-1.57c-0.53-0.16-1.58-0.61-2.02-0.62c-0.34-0.28-1.74-0.8-2.36-1.14
	c-0.71-0.39-1.58-1.07-2.61-0.81c-1.06,0.26-2.14,1.76-1.8,3.24c0.35,1.16,0.81,1.39,0.09,1.31c-1.11-0.13-2.15-0.59-3.35-0.4
	c-1.27,0.2-1.89,3.67-0.28,4.28C93.91,188.73,96.95,188.38,96.25,189.32"/>
<path class="st4" d="M85.11,92.35c2.81,26.76,19.23,56.92-3.53,85.57C108.89,148.69,91.61,119.18,85.11,92.35"/>
<text transform="matrix(1 0 0 1 134.2607 163.5341)" class="st5 st6 st7">TS</text>
<text transform="matrix(1 0 0 1 146.7197 181.1806)"><tspan x="0" y="0" class="st5 st8 st9">T</tspan><tspan x="7.5" y="0" class="st5 st8 st9">ech</tspan><tspan x="27.21" y="0" class="st5 st8 st9"> &amp; </tspan><tspan x="42.05" y="0" class="st5 st8 st9">Heal</tspan><tspan x="67.15" y="0" class="st5 st8 st9">t</tspan><tspan x="70.47" y="0" class="st5 st8 st9">h</tspan></text>
</svg>
