<svg width="51" height="50" viewBox="0 0 51 50" fill="none" xmlns="http://www.w3.org/2000/svg">
<mask id="mask0_1_126" style="mask-type:luminance" maskUnits="userSpaceOnUse" x="0" y="0" width="51" height="50">
<path d="M0.614502 0.000148773H50.6144V50H0.614502V0.000148773Z" fill="white"/>
</mask>
<g mask="url(#mask0_1_126)">
<path d="M16.8254 23.5352C20.6678 23.5352 24.6517 22.2334 24.6918 22.219C32.0167 19.7954 37.684 21.6811 35.0832 18.1443C32.8029 15.0437 31.4738 11.351 31.4738 7.5022V1.46491H19.7551V7.5022C19.7551 11.351 18.426 15.0437 16.1457 18.1443C12.4889 23.1175 16.7483 23.5352 16.8254 23.5352Z" stroke="black" stroke-width="2.92968" stroke-miterlimit="10"/>
<path d="M34.4035 26.4649C30.5611 26.4649 26.5771 27.7667 26.5371 27.781C19.2122 30.2046 13.5448 28.319 16.1457 31.8558C18.426 34.9564 19.7551 38.6491 19.7551 42.4979V48.5352H31.4738V42.4979C31.4738 38.6491 32.8029 34.9564 35.0831 31.8558C38.74 26.8826 34.4806 26.4649 34.4035 26.4649Z" stroke="black" stroke-width="2.92968" stroke-miterlimit="10"/>
<path d="M11.3353 35.2539C9.25913 32.3679 8.03638 28.8268 8.03638 25C8.03638 21.1733 9.25913 17.6322 11.3353 14.7462" stroke="black" stroke-width="2.92968" stroke-miterlimit="10"/>
<path d="M39.8936 14.7462C41.9698 17.6322 43.1925 21.1733 43.1925 25C43.1925 28.8268 41.9698 32.3679 39.8936 35.2539" stroke="black" stroke-width="2.92968" stroke-miterlimit="10"/>
</g>
</svg>
