<svg width="51" height="55" viewBox="0 0 51 55" fill="none" xmlns="http://www.w3.org/2000/svg">
<mask id="mask0_1_125" style="mask-type:luminance" maskUnits="userSpaceOnUse" x="0" y="0" width="51" height="50">
<path d="M0.295166 0.000148773H50.295V50H0.295166V0.000148773Z" fill="white"/>
</mask>
<g mask="url(#mask0_1_125)">
<path d="M16.506 23.5352C20.3484 23.5352 24.3324 22.2334 24.3724 22.219C31.6973 19.7954 37.3647 21.6811 34.7638 18.1443C32.4835 15.0437 31.1544 11.351 31.1544 7.5022V1.46491H19.4357V7.5022C19.4357 11.351 18.1066 15.0437 15.8263 18.1443C12.1695 23.1175 16.4289 23.5352 16.506 23.5352Z" stroke="black" stroke-width="2.92968" stroke-miterlimit="10"/>
<path d="M34.0841 26.4649C30.2418 26.4649 26.2578 27.7667 26.2177 27.781C18.8929 30.2046 13.2255 28.319 15.8264 31.8558C18.1066 34.9564 19.4357 38.6491 19.4357 42.4979V48.5352H31.1544V42.4979C31.1544 38.6491 32.4835 34.9564 34.7638 31.8558C38.4206 26.8826 34.1613 26.4649 34.0841 26.4649Z" stroke="black" stroke-width="2.92968" stroke-miterlimit="10"/>
<path d="M11.0159 35.2539C8.93976 32.3679 7.71701 28.8268 7.71701 25C7.71701 21.1733 8.93976 17.6322 11.0159 14.7462" stroke="black" stroke-width="2.92968" stroke-miterlimit="10"/>
<path d="M39.5742 14.7462C41.6504 17.6322 42.8732 21.1733 42.8732 25C42.8732 28.8268 41.6504 32.3679 39.5742 35.2539" stroke="black" stroke-width="2.92968" stroke-miterlimit="10"/>
</g>
</svg>
