<svg width="239" height="44" viewBox="0 0 239 44" fill="none" xmlns="http://www.w3.org/2000/svg">
<g clip-path="url(#clip0_138_24)">
<mask id="mask0_138_24" style="mask-type:luminance" maskUnits="userSpaceOnUse" x="0" y="0" width="239" height="44">
<path d="M239 0.200195H0V43.2002H239V0.200195Z" fill="white"/>
</mask>
<g mask="url(#mask0_138_24)">
<path d="M51.4933 27.3746C52.1352 27.5559 52.8355 27.7281 53.6024 27.864C54.4009 28.0122 55.2098 28.085 56.0199 28.0816C56.7456 28.1125 57.4706 28.0051 58.1623 27.7643C58.4178 27.6531 58.6455 27.4777 58.8266 27.2524C59.0077 27.0271 59.1372 26.7584 59.2044 26.4682C59.2645 26.2739 59.3064 26.0734 59.3294 25.8699C59.3474 25.6349 59.3131 25.3986 59.2294 25.1811C59.1295 24.9399 58.9848 24.7239 58.8042 24.5466C58.5642 24.3043 58.3048 24.0859 58.029 23.894C57.7122 23.6674 57.3287 23.4227 56.8869 23.1598C56.4451 22.8969 56.0532 22.6069 55.5865 22.3078C55.1402 22.0101 54.7358 21.6437 54.386 21.2201C54.0047 20.7524 53.7197 20.2016 53.55 19.6044C53.3804 19.0073 53.33 18.3776 53.4023 17.7576C53.4578 17.1821 53.5667 16.6142 53.7274 16.0626C54.1246 14.5358 55.051 13.2361 56.3117 12.437C57.7563 11.5513 59.3975 11.1154 61.055 11.1771C62.0574 11.1655 63.0572 11.2903 64.0311 11.5487C64.8202 11.7623 65.5924 12.0442 66.3402 12.3917L65.3982 16.0173C64.7035 15.8723 64.0199 15.7454 63.3475 15.6366C62.654 15.5341 61.9549 15.4827 61.2551 15.4825C60.5007 15.4336 59.7448 15.5444 59.0293 15.8088C58.8188 15.9164 58.634 16.0755 58.4893 16.2736C58.3448 16.4718 58.2443 16.7035 58.1957 16.9509C58.1659 17.091 58.1464 17.2334 58.1373 17.3769C58.1047 17.6171 58.1307 17.8624 58.2126 18.0883C58.2945 18.3141 58.4296 18.5127 58.6042 18.664C59.1291 19.0875 59.687 19.4605 60.2714 19.7789C60.7133 20.0417 61.1717 20.3318 61.6469 20.64C62.1138 20.9509 62.5401 21.329 62.914 21.7639C63.2909 22.216 63.5902 22.7379 63.7977 23.3048C64.0243 23.9766 64.1014 24.6972 64.0227 25.4077C63.9745 25.9145 63.8825 26.4153 63.7476 26.9032C63.5007 27.8873 63.0818 28.8105 62.5138 29.6225C62.0235 30.3035 61.4249 30.8837 60.7465 31.3356C60.0948 31.7632 59.382 32.0695 58.6375 32.242C57.9142 32.4106 57.1764 32.4956 56.4368 32.4958C55.3557 32.503 54.2788 32.3506 53.2357 32.0426C52.3479 31.7831 51.4764 31.4622 50.6263 31.0818L51.4933 27.3746Z" fill="#00B2A8"/>
<path d="M74.0428 24.3473C74.1201 24.0512 74.1703 23.7476 74.193 23.4409C74.243 22.9647 74.1649 22.4829 73.9679 22.0541C73.8529 21.85 73.6867 21.686 73.4887 21.5816C73.2907 21.4772 73.0693 21.4367 72.8508 21.4649C72.5345 21.4589 72.2219 21.54 71.9422 21.7006C71.6701 21.8717 71.4344 22.1034 71.2503 22.3804C71.0411 22.7 70.8702 23.0472 70.7417 23.4137C70.5855 23.8383 70.4574 24.2745 70.3583 24.7189C70.2177 25.2741 70.1201 25.8411 70.0665 26.4139C70.0022 26.9073 70.0688 27.4104 70.2582 27.8641C70.3719 28.0609 70.5354 28.2178 70.7292 28.3159C70.9229 28.414 71.1387 28.4492 71.3503 28.4171C71.661 28.4319 71.9696 28.3556 72.244 28.1961C72.5182 28.0366 72.7479 27.7999 72.9091 27.5107C73.3341 26.7411 73.6516 25.9072 73.8512 25.0362L74.0428 24.3473ZM78.336 31.8705C78.014 32.0066 77.6782 32.1009 77.3357 32.1515C76.9988 32.2034 76.659 32.2307 76.3187 32.233C74.7682 32.233 73.8178 31.5895 73.526 30.2843C73.0265 30.9341 72.4184 31.4754 71.7337 31.8796C71.0255 32.2644 70.2411 32.4543 69.4496 32.4325C68.7885 32.4579 68.1312 32.3119 67.5323 32.0064C67.0297 31.7441 66.6009 31.3404 66.2901 30.8372C65.9807 30.3081 65.7736 29.7159 65.6816 29.0969C65.5819 28.3952 65.5623 27.6828 65.6233 26.9759C65.7068 26.0143 65.8885 25.0658 66.1651 24.1479C66.4087 23.2732 66.7297 22.4263 67.1238 21.619C67.5082 20.8426 67.9908 20.1286 68.5576 19.498C69.0746 18.8968 69.6875 18.4024 70.3666 18.0387C71.0728 17.6769 71.8452 17.4941 72.6257 17.5039C73.2868 17.4896 73.9424 17.6383 74.5431 17.939C75.1163 18.2533 75.5854 18.7538 75.8852 19.3711L76.5604 17.8121H80.1534L77.7275 26.9487C77.659 27.188 77.6115 27.4338 77.5858 27.6829C77.5621 27.8291 77.5753 27.9795 77.6236 28.1183C77.6721 28.2571 77.754 28.3791 77.8609 28.4715C78.2524 28.6855 78.692 28.7736 79.128 28.7252L78.336 31.8705Z" fill="#00B2A8"/>
<path d="M87.1634 16.3707L86.5382 13.8872L91.8984 11.2495C92.2541 11.067 92.6393 10.9623 93.0321 10.9414C93.724 10.9414 94.1829 11.3855 94.3994 12.2738C94.4819 12.5669 94.5109 12.875 94.4828 13.1802C94.4725 13.3917 94.4228 13.5987 94.3366 13.7888C94.2504 13.9788 94.1304 14.148 93.9823 14.286C93.6147 14.5879 93.186 14.7899 92.732 14.8752L87.1634 16.3707ZM85.7129 26.1237C85.6467 26.4036 85.5994 26.6884 85.5712 26.9757C85.5376 27.1546 85.5373 27.339 85.5702 27.518C85.6031 27.697 85.6687 27.867 85.763 28.0181C85.8651 28.1288 85.9879 28.2144 86.1231 28.2691C86.2582 28.3239 86.4026 28.3465 86.5465 28.3353C87.5802 28.3353 88.3305 27.4289 88.814 25.6161L90.823 17.8391H95.2326L92.8821 26.9757C92.8136 27.215 92.7661 27.4609 92.7404 27.7099C92.7167 27.8561 92.7298 28.0065 92.7782 28.1453C92.8266 28.2841 92.9086 28.4061 93.0154 28.4985C93.4097 28.7133 93.852 28.8014 94.2907 28.7523L93.4573 31.8975C93.1319 32.0325 92.7936 32.1268 92.4486 32.1785C92.1116 32.2304 91.7719 32.2577 91.4316 32.2601C89.9143 32.2601 88.9807 31.6256 88.6389 30.3385C88.1131 30.9899 87.4725 31.52 86.755 31.8975C86.0117 32.276 85.1998 32.4681 84.3791 32.4595C83.8799 32.4996 83.3787 32.4188 82.9116 32.2228C82.4445 32.0269 82.0233 31.7208 81.6781 31.3265C81.3559 30.8755 81.1235 30.3565 80.9958 29.8025C80.8681 29.2485 80.8478 28.6717 80.9363 28.1087C80.9571 27.8222 80.9961 27.5375 81.053 27.2567C81.1113 26.9576 81.1863 26.6494 81.2613 26.3503L83.4538 17.8663H87.8553L85.7129 26.1237Z" fill="#00B2A8"/>
<path d="M104.404 24.3471C104.48 24.051 104.531 23.7474 104.554 23.4407C104.61 22.9652 104.535 22.4822 104.337 22.0539C104.222 21.8498 104.056 21.6858 103.857 21.5813C103.659 21.4769 103.438 21.4364 103.22 21.4647C102.901 21.4598 102.586 21.5408 102.302 21.7003C102.033 21.8716 101.8 22.1034 101.619 22.3801C101.407 22.6993 101.234 23.0465 101.103 23.4135C100.953 23.8397 100.827 24.2756 100.727 24.7187C100.587 25.2738 100.489 25.8408 100.435 26.4137C100.372 26.9071 100.438 27.4102 100.627 27.8639C100.741 28.0607 100.904 28.2176 101.098 28.3157C101.292 28.4138 101.507 28.4489 101.719 28.4168C102.03 28.4316 102.339 28.3553 102.613 28.1958C102.887 28.0364 103.117 27.7996 103.278 27.5104C103.703 26.7421 104.018 25.9076 104.211 25.0359L104.404 24.3471ZM108.68 31.8702C108.355 32.0064 108.017 32.1007 107.671 32.1512C107.337 32.2031 107 32.2303 106.662 32.2328C106.017 32.2674 105.375 32.1007 104.812 31.7524C104.574 31.5927 104.369 31.3829 104.207 31.1354C104.046 30.8879 103.93 30.6076 103.87 30.3112C103.362 30.9484 102.752 31.4798 102.069 31.8793C101.37 32.2644 100.594 32.4544 99.8101 32.4322C99.1597 32.4519 98.513 32.3125 97.9178 32.0243C97.4192 31.7719 96.9927 31.3772 96.6844 30.8823C96.3648 30.3557 96.1492 29.7632 96.0508 29.1419C95.929 28.4186 95.9008 27.6803 95.9674 26.9485C96.0555 25.9964 96.2364 25.0575 96.5091 24.1477C96.764 23.2445 97.1052 22.3726 97.526 21.5462C97.9075 20.7758 98.3874 20.0679 98.9516 19.4434C99.4671 18.8645 100.071 18.3863 100.735 18.0294C101.39 17.6757 102.113 17.4955 102.845 17.5037C103.401 17.4709 103.956 17.5849 104.462 17.8359C104.969 18.0868 105.412 18.4673 105.754 18.9449L107.688 11.4761H112.082L108.071 26.9485C108.005 27.1879 107.96 27.4338 107.938 27.6826C107.911 27.8281 107.921 27.9789 107.968 28.1182C108.015 28.2575 108.097 28.3798 108.205 28.4712C108.6 28.6851 109.041 28.7731 109.48 28.725L108.68 31.8702Z" fill="#00B2A8"/>
<path d="M115.857 23.7758C116.066 23.8182 116.279 23.8394 116.49 23.8393H117.049C117.618 23.8881 118.189 23.7918 118.716 23.5582C118.985 23.4027 119.208 23.1669 119.358 22.8784C119.411 22.7489 119.456 22.6156 119.492 22.4796C119.517 22.3695 119.534 22.2573 119.542 22.1443C119.564 21.9979 119.556 21.8481 119.519 21.7055C119.481 21.5629 119.415 21.431 119.325 21.3194C119.199 21.201 119.052 21.1125 118.893 21.0595C118.733 21.0064 118.566 20.99 118.4 21.0112C117.886 21.0147 117.391 21.2209 117.008 21.5914C116.459 22.1947 116.072 22.9503 115.891 23.7758H115.857ZM120.484 31.5256C119.91 31.8331 119.302 32.0586 118.675 32.1963C117.961 32.3527 117.236 32.4317 116.507 32.432C114.623 32.432 113.234 31.9244 112.339 30.9092C111.884 30.3188 111.551 29.6284 111.365 28.8853C111.177 28.1422 111.141 27.364 111.256 26.6038C111.313 25.9647 111.416 25.3313 111.564 24.7094C111.972 22.6694 112.947 20.8151 114.356 19.3978C115.711 18.1256 117.453 17.4499 119.241 17.5034C119.824 17.4442 120.413 17.5106 120.971 17.6988C121.531 17.887 122.051 18.1933 122.501 18.6002C122.832 18.977 123.078 19.431 123.223 19.9274C123.367 20.4238 123.406 20.9495 123.335 21.4644C123.335 21.6095 123.335 21.7545 123.335 21.8995C123.324 22.0487 123.293 22.1953 123.243 22.3346C122.599 25.1445 120.537 26.5494 117.057 26.5494C116.502 26.5494 115.946 26.5222 115.39 26.4678C115.352 26.7926 115.377 27.1228 115.467 27.4356C115.556 27.7485 115.706 28.0368 115.907 28.2807C116.564 28.734 117.342 28.9321 118.117 28.8426C118.566 28.8426 119.05 28.8154 119.567 28.761C120.092 28.6976 120.667 28.607 121.3 28.4801L120.484 31.5256Z" fill="#00B2A8"/>
<path d="M134.913 21.6005H138.048C139.042 21.6479 140.025 21.3632 140.866 20.7847C141.681 20.0908 142.25 19.1104 142.475 18.0111C142.533 17.7845 142.583 17.567 142.625 17.3494C142.666 17.14 142.697 16.9281 142.717 16.7149C142.779 16.3055 142.754 15.8859 142.645 15.4884C142.534 15.0909 142.343 14.726 142.083 14.4217C141.736 14.1117 141.337 13.8793 140.908 13.7377C140.479 13.5961 140.028 13.5483 139.582 13.5969H136.964L134.913 21.6005ZM129.72 32.006L135.056 11.3671H140.357C141.049 11.3017 141.746 11.3937 142.403 11.6371C143.061 11.8806 143.664 12.2702 144.175 12.7811C144.593 13.291 144.902 13.895 145.081 14.5499C145.26 15.2048 145.304 15.8946 145.209 16.5699C145.192 16.811 145.159 17.0504 145.109 17.286C145.067 17.5307 145.017 17.7754 144.959 18.0383C144.744 19.0134 144.362 19.9359 143.833 20.7575C143.372 21.4718 142.793 22.0866 142.124 22.5703C141.472 23.0247 140.753 23.3557 139.999 23.5492C139.223 23.7496 138.429 23.85 137.631 23.8484H134.296L132.179 32.006H129.72Z" fill="#00B2A8"/>
<path d="M147.752 24.1475L148.944 24.2472C149.319 24.2472 149.66 24.2925 149.994 24.2925C150.887 24.3523 151.779 24.175 152.595 23.7758C153.161 23.4326 153.587 22.8692 153.787 22.1987C153.787 22.0627 153.862 21.9358 153.895 21.818C153.919 21.7014 153.936 21.5833 153.945 21.4645C153.977 21.2218 153.959 20.9744 153.891 20.7406C153.823 20.5068 153.708 20.2926 153.553 20.1139C153.103 19.718 152.528 19.5322 151.952 19.5973C151.425 19.5791 150.9 19.693 150.418 19.9303C149.937 20.1676 149.512 20.522 149.177 20.966C148.841 21.4104 148.561 21.9011 148.343 22.4253C148.104 22.9804 147.909 23.5566 147.76 24.1475H147.752ZM153.103 31.5528C152.6 31.8176 152.068 32.0125 151.519 32.1329C150.887 32.2826 150.241 32.3556 149.593 32.3504C148.822 32.3711 148.053 32.2359 147.326 31.9516C146.755 31.721 146.246 31.3412 145.843 30.8458C145.458 30.3552 145.189 29.7704 145.059 29.1417C144.916 28.4123 144.879 27.6629 144.95 26.9211C144.981 26.5221 145.034 26.1256 145.109 25.7337C145.187 25.302 145.288 24.8754 145.409 24.4556C145.65 23.5138 145.983 22.6023 146.401 21.7364C146.794 20.935 147.291 20.1993 147.876 19.552C148.432 18.9346 149.091 18.4392 149.818 18.0926C150.608 17.7238 151.461 17.5445 152.32 17.5669C153.36 17.5066 154.387 17.8467 155.221 18.5277C155.571 18.8605 155.839 19.2842 156 19.7595C156.16 20.2348 156.208 20.7464 156.137 21.2469C156.106 21.6006 156.043 21.9499 155.946 22.2893C155.671 23.4869 154.977 24.5207 154.012 25.1717C152.747 25.8679 151.333 26.181 149.919 26.0781C149.084 26.0717 148.248 26.0173 147.418 25.9149C147.392 26.0527 147.372 26.1919 147.36 26.3319C147.36 26.4679 147.36 26.6038 147.36 26.7307C147.226 27.6397 147.423 28.5698 147.91 29.323C148.368 29.9485 149.252 30.2295 150.561 30.2295C151.08 30.2307 151.599 30.1852 152.111 30.0935C152.611 29.9938 153.128 29.885 153.654 29.7491L153.103 31.5528Z" fill="#00B2A8"/>
<path d="M163.507 31.9247C163.152 32.048 162.79 32.1479 162.423 32.2238C161.991 32.3076 161.554 32.3501 161.114 32.3507C160.662 32.3956 160.207 32.3382 159.777 32.1822C159.346 32.0262 158.95 31.775 158.614 31.4443C158.341 31.1005 158.141 30.6957 158.03 30.2586C157.917 29.8216 157.895 29.3629 157.963 28.9154C157.983 28.7021 158.013 28.4902 158.055 28.2809C158.097 28.0634 158.147 27.8368 158.205 27.592L160.172 19.951H157.871L158.255 18.4554L160.698 17.975L161.831 13.6152H164.207L163.081 17.9206H166.758L166.225 19.951H162.557L160.656 27.3382C160.606 27.5376 160.556 27.737 160.514 27.9274C160.476 28.1036 160.449 28.2822 160.431 28.4622C160.393 28.7042 160.408 28.9525 160.475 29.1871C160.541 29.4217 160.658 29.636 160.814 29.8127C161.307 30.1626 161.897 30.3163 162.482 30.2478H163.14C163.39 30.2478 163.665 30.2025 163.974 30.1571L163.507 31.9247Z" fill="#00B2A8"/>
<path d="M166.008 32.0063L169.668 17.9298H171.584L171.117 20.504C171.621 19.6676 172.291 18.9645 173.076 18.4464C173.849 17.9385 174.734 17.6719 175.636 17.676C175.915 17.6727 176.195 17.7 176.469 17.7576L175.903 19.9329C175.817 19.924 175.731 19.924 175.644 19.9329H175.386C174.77 19.92 174.16 20.0498 173.594 20.3136C173.048 20.5837 172.553 20.9618 172.134 21.4285C171.68 21.9322 171.293 22.5028 170.984 23.1235C170.65 23.7938 170.385 24.502 170.192 25.2354L168.417 32.0154L166.008 32.0063Z" fill="#00B2A8"/>
<path d="M179.071 29.1513C179.264 29.4704 179.536 29.7246 179.855 29.8854C180.263 30.0945 180.712 30.1939 181.163 30.1755C181.632 30.1928 182.098 30.0988 182.53 29.9C182.962 29.7012 183.35 29.4024 183.664 29.0243C184.427 27.9827 184.973 26.7736 185.264 25.4803C185.365 25.0996 185.456 24.7099 185.54 24.3201C185.621 23.9384 185.678 23.5506 185.707 23.1599C185.753 22.7323 185.753 22.3004 185.707 21.8728C185.657 21.4902 185.535 21.1229 185.348 20.7942C185.158 20.4727 184.889 20.2152 184.573 20.0509C184.164 19.8429 183.715 19.7435 183.264 19.7609C182.796 19.7448 182.329 19.8393 181.898 20.0381C181.466 20.2368 181.079 20.535 180.763 20.912C180.016 21.9591 179.481 23.1672 179.196 24.4561C179.095 24.8368 179.004 25.2265 178.921 25.6163C178.84 25.9986 178.781 26.3861 178.746 26.7765C178.704 27.2043 178.704 27.6357 178.746 28.0636C178.79 28.4492 178.909 28.8201 179.095 29.1513H179.071ZM178.504 31.9249C177.959 31.6518 177.484 31.2379 177.12 30.7194C176.764 30.2054 176.53 29.6049 176.436 28.97C176.325 28.2544 176.302 27.5258 176.37 26.8037C176.449 25.8652 176.619 24.9385 176.879 24.0391C177.323 22.254 178.184 20.6242 179.379 19.3077C179.96 18.7241 180.641 18.2714 181.384 17.9758C182.126 17.6802 182.916 17.5475 183.706 17.5855C184.474 17.5573 185.238 17.7088 185.949 18.0296C186.507 18.2846 186.996 18.6939 187.366 19.217C187.717 19.7345 187.953 20.3331 188.057 20.9664C188.178 21.6806 188.206 22.4099 188.141 23.1327C188.104 23.5875 188.037 24.0389 187.94 24.4833C187.841 24.9546 187.732 25.3897 187.607 25.8973C187.168 27.6956 186.307 29.3388 185.106 30.665C183.934 31.8181 182.393 32.4236 180.813 32.3509C180.038 32.3761 179.268 32.2312 178.545 31.9249" fill="#00B2A8"/>
<path d="M193.318 25.752C193.268 25.9786 193.218 26.2052 193.176 26.4227C193.135 26.6382 193.104 26.8561 193.084 27.0753C192.989 27.8501 193.149 28.6366 193.535 29.296C193.77 29.6214 194.078 29.8755 194.431 30.0342C194.782 30.1929 195.166 30.2508 195.543 30.2024C196.001 30.2229 196.455 30.1345 196.877 29.9435C197.3 29.7524 197.677 29.4634 197.986 29.0966C198.682 28.1956 199.214 27.159 199.554 26.042C199.726 25.5376 199.874 25.0232 199.995 24.5011C200.096 24.0507 200.168 23.5934 200.212 23.1324C200.325 22.293 200.182 21.4363 199.803 20.6942C199.581 20.3742 199.286 20.1224 198.946 19.9635C198.607 19.8047 198.236 19.7441 197.87 19.7878C197.36 19.7754 196.854 19.8878 196.389 20.1169C195.924 20.346 195.512 20.6858 195.185 21.1112C194.379 22.1877 193.809 23.4491 193.518 24.8002L193.318 25.752ZM189.316 32.0515L190.534 27.3744C190.875 26.0873 191.176 24.9362 191.442 23.921C191.709 22.9059 191.942 21.9904 192.159 21.1565C192.375 20.3226 192.601 19.4343 192.843 18.5188L193.676 15.4733C193.968 14.3494 194.31 12.9988 194.718 11.4126H197.094L194.985 19.5249C195.472 18.9795 196.034 18.5207 196.652 18.1653C197.324 17.7968 198.068 17.6132 198.82 17.6306C199.494 17.6097 200.164 17.7553 200.779 18.0566C201.276 18.3098 201.703 18.7043 202.012 19.1986C202.322 19.7066 202.528 20.2819 202.613 20.8846C202.72 21.5671 202.742 22.2621 202.68 22.9512C202.63 23.5382 202.538 24.1201 202.404 24.6915C202.267 25.306 202.098 25.9113 201.896 26.5043C201.619 27.3344 201.266 28.1329 200.845 28.8881C200.469 29.5819 200 30.2111 199.454 30.7553C198.942 31.2674 198.352 31.6785 197.711 31.9699C197.049 32.2734 196.337 32.4247 195.618 32.4141C195.136 32.4221 194.654 32.3456 194.193 32.1875C193.824 32.0574 193.478 31.8613 193.167 31.6074C192.896 31.3847 192.661 31.1117 192.476 30.8007C192.313 30.5145 192.179 30.2107 192.075 29.8943L191.3 32.0968L189.316 32.0515Z" fill="#00B2A8"/>
<path d="M203.77 32.006L207.43 17.9294H209.347L208.88 20.5036C209.385 19.6649 210.057 18.9614 210.848 18.4461C211.619 17.9368 212.505 17.6701 213.407 17.6756C213.687 17.672 213.966 17.6993 214.24 17.7572L213.674 19.9326C213.588 19.9232 213.502 19.9232 213.416 19.9326H213.157C212.54 19.9262 211.929 20.0621 211.365 20.3314C210.819 20.6015 210.325 20.9796 209.906 21.4463C209.454 21.9523 209.067 22.5225 208.756 23.1413C208.407 23.8097 208.128 24.518 207.921 25.2532L206.155 32.0331L203.77 32.006Z" fill="#00B2A8"/>
<path d="M223.261 24.2292C223.317 24.0056 223.367 23.779 223.411 23.5494C223.453 23.337 223.484 23.1221 223.502 22.9058C223.593 22.1312 223.435 21.3463 223.053 20.6851C222.817 20.3598 222.509 20.1056 222.157 19.9469C221.805 19.7882 221.422 19.7303 221.043 19.7787C220.587 19.7582 220.131 19.8466 219.709 20.0377C219.288 20.2287 218.909 20.5177 218.601 20.8845C217.902 21.7833 217.37 22.8206 217.034 23.9391C216.861 24.4436 216.713 24.958 216.592 25.48C216.492 25.9304 216.419 26.3877 216.376 26.8487C216.262 27.6881 216.406 28.5448 216.783 29.2869C217.006 29.607 217.302 29.8587 217.641 30.0176C217.979 30.1765 218.35 30.237 218.718 30.1933C219.228 30.2045 219.733 30.0914 220.198 29.8624C220.663 29.6334 221.074 29.2943 221.402 28.87C222.207 27.7934 222.778 26.532 223.069 25.1809L223.261 24.2292ZM225.611 31.8974C225.409 31.954 225.203 31.9994 224.995 32.0333C224.775 32.0769 224.551 32.0981 224.328 32.0968C224.028 32.1245 223.727 32.0876 223.441 31.988C223.155 31.8884 222.89 31.7282 222.661 31.5167C222.471 31.2968 222.33 31.0338 222.247 30.7468C222.163 30.4598 222.139 30.1561 222.177 29.8579C221.674 30.5733 221.059 31.1869 220.36 31.6708C219.591 32.173 218.706 32.4247 217.809 32.3959C217.135 32.4177 216.465 32.272 215.85 31.9699C215.352 31.7167 214.926 31.3221 214.616 30.8278C214.306 30.3198 214.102 29.7445 214.016 29.1419C213.909 28.4593 213.886 27.7643 213.949 27.0753C213.999 26.4883 214.091 25.9064 214.225 25.335C214.361 24.7204 214.531 24.1151 214.733 23.5222C215.009 22.696 215.359 21.9008 215.775 21.1474C216.164 20.4604 216.635 19.8325 217.175 19.2802C217.685 18.7635 218.275 18.3492 218.917 18.0565C219.579 17.753 220.292 17.6018 221.01 17.6124C221.493 17.6044 221.975 17.6809 222.436 17.839C222.803 17.9729 223.149 18.1687 223.461 18.4191C223.738 18.6415 223.97 18.922 224.144 19.2439C224.308 19.5302 224.445 19.8339 224.553 20.1503L225.328 17.9478H227.237L224.444 28.6434C224.383 28.8656 224.339 29.093 224.311 29.3232C224.311 29.7945 224.395 30.0936 224.669 30.2296C225.083 30.3824 225.518 30.456 225.953 30.4471L225.611 31.8974Z" fill="#00B2A8"/>
<path d="M228.329 29.6587C229.499 30.0656 230.719 30.2765 231.947 30.2841C232.546 30.2966 233.141 30.1923 233.706 29.9759C233.972 29.8618 234.212 29.6858 234.41 29.4604C234.607 29.235 234.757 28.9655 234.848 28.6707C234.914 28.4904 234.956 28.3014 234.973 28.1087C235.017 27.7898 234.944 27.4651 234.773 27.2023C234.6 26.9399 234.382 26.7154 234.132 26.5406C233.852 26.3323 233.556 26.1504 233.248 25.9968C232.923 25.8427 232.614 25.6705 232.314 25.5073C231.989 25.3183 231.675 25.1095 231.372 24.8819C231.084 24.6668 230.823 24.4107 230.596 24.1205C230.37 23.8335 230.197 23.5009 230.089 23.1416C229.971 22.747 229.932 22.3302 229.971 21.9179C229.985 21.7446 230.008 21.5722 230.038 21.4013C230.078 21.211 230.129 21.0234 230.189 20.8393C230.498 19.8779 231.082 19.0491 231.855 18.4736C232.883 17.8088 234.071 17.4932 235.265 17.5672C235.96 17.5573 236.655 17.6395 237.333 17.8119C237.903 17.9607 238.462 18.164 239 18.4192L238.525 20.1142C238.016 19.9601 237.516 19.8423 236.999 19.7426C236.431 19.6472 235.856 19.6017 235.282 19.6066C234.685 19.5951 234.092 19.6901 233.523 19.8876C233.26 19.9911 233.023 20.1596 232.831 20.3798C232.639 20.6001 232.495 20.866 232.414 21.1565C232.351 21.3311 232.309 21.514 232.289 21.7004C232.267 21.9299 232.302 22.1617 232.391 22.3709C232.481 22.5802 232.622 22.7589 232.797 22.8878C233.35 23.2875 233.933 23.6361 234.54 23.9302C234.882 24.1205 235.24 24.3199 235.599 24.5375C235.948 24.7465 236.268 25.009 236.549 25.317C236.815 25.6208 237.03 25.9737 237.183 26.3593C237.346 26.7986 237.407 27.2752 237.358 27.7462C237.329 28.0341 237.278 28.319 237.208 28.5982C237.078 29.1838 236.842 29.7356 236.515 30.2211C236.187 30.7067 235.774 31.1164 235.299 31.4262C234.281 32.0464 233.13 32.3593 231.964 32.3326C231.174 32.3383 230.387 32.2317 229.622 32.0153C229.024 31.8595 228.441 31.644 227.879 31.3718L228.329 29.6587Z" fill="#00B2A8"/>
<path d="M13.5902 11.7002H13.1216L7.49805 31.2002L8.90393 32.7002H26.7118L29.0549 31.2002L33.2726 12.7002L33.7412 11.7002L31.8667 10.2002L14.0588 11.2002L13.5902 11.7002Z" fill="#3DA480"/>
<path d="M8.20325 32.0063C6.78609 39.9102 10.0122 42.6204 14.9973 43.1551C21.2162 43.5721 25.4676 41.0432 27.9351 32.0063H8.20325Z" fill="#C4D600"/>
<path d="M8.20221 32.0062C0.824636 31.2901 -0.675883 27.166 0.232767 21.8182C1.59991 15.2014 5.00943 11.467 13.6791 11.3945C13.6791 11.3945 8.63569 30.3565 8.20221 32.0062Z" fill="#C4D600"/>
<path d="M33.4201 11.3945C34.829 3.49067 31.6029 0.78049 26.6261 0.245709C20.3989 -0.171239 16.1558 2.35766 13.6799 11.3945H33.4201Z" fill="#00B2A8"/>
<path d="M33.4199 11.3945C40.789 12.1106 42.2896 16.2347 41.3809 21.5825C40.0221 28.1993 36.6043 31.9337 27.9346 32.0062C27.9346 32.0062 32.978 13.0442 33.4199 11.3945Z" fill="#00B2A8"/>
</g>
</g>
<defs>
<clipPath id="clip0_138_24">
<rect width="239" height="43" fill="white" transform="translate(0 0.200195)"/>
</clipPath>
</defs>
</svg>
